<svg xmlns="http://www.w3.org/2000/svg">
    <symbol id="phone">
        <path d="M12.669 13.1545C12.4344 13.6557 11.9652 13.9063 11.4959 14.1569C10.9094 14.5327 10.4402 14.658 9.85367 14.658C9.03253 14.658 8.21139 14.2822 7.50756 14.0316C6.92103 13.781 6.45181 13.5304 5.86528 13.2798C4.223 12.1522 2.34611 10.1474 1.40767 8.51861C1.05575 7.89214 0.821139 7.39096 0.586528 6.76449C0.351917 5.88743 0 5.13567 0 4.13331C0 3.50684 0.117306 2.88037 0.469222 2.25389C0.703833 1.75272 0.938445 1.25154 1.40767 1.00095C1.75958 1.00095 2.34611 0.875656 2.69803 0.875656C2.81533 0.875656 2.81533 0.875656 2.93264 0.875656C3.16725 1.00095 3.28456 1.37683 3.40186 1.62742C3.63647 2.25389 3.98839 2.75507 4.223 3.38154C4.45761 3.63213 4.69222 3.88272 4.69222 4.13331C4.69222 4.75978 3.04994 5.63684 3.04994 6.13802C3.04994 6.38861 3.28456 6.76449 3.40186 7.01508C4.34031 8.7692 5.51336 10.0221 7.15564 11.0245C7.39025 11.1498 7.74217 11.4004 7.97678 11.4004C8.446 11.4004 9.26714 9.64626 9.85367 9.64626C10.0883 9.64626 10.3229 9.89685 10.5575 10.1474C11.0267 10.5233 11.6133 10.7739 12.0825 11.1498C12.3171 11.2751 12.669 11.4004 12.7863 11.651C12.7863 11.7763 12.7863 11.7763 12.7863 11.9016C12.9036 12.1522 12.7863 12.7786 12.669 13.1545Z"/>
    </symbol>
    <symbol id="black-phone">
        <g clip-path="url(#clip0)">
        <path d="M11.9741 9.29781C11.9401 9.19554 11.7242 9.04488 11.3264 8.84619C11.2186 8.78357 11.0651 8.69846 10.8664 8.59049C10.6675 8.48252 10.487 8.38303 10.3252 8.2921C10.163 8.20121 10.0111 8.11314 9.86919 8.02804C9.8465 8.01099 9.77548 7.96135 9.65617 7.87879C9.53674 7.79646 9.43602 7.73535 9.35348 7.6955C9.27112 7.65589 9.19011 7.63595 9.11055 7.63595C8.99694 7.63595 8.85503 7.71696 8.68464 7.87879C8.51425 8.04082 8.35795 8.21682 8.21598 8.40733C8.07398 8.59774 7.92339 8.77375 7.76446 8.93569C7.60529 9.09769 7.47452 9.17861 7.37237 9.17861C7.32108 9.17861 7.25714 9.16432 7.18052 9.13611C7.10392 9.10772 7.04565 9.08339 7.00565 9.06378C6.96601 9.04375 6.89798 9.00411 6.80132 8.94425C6.70448 8.88458 6.65063 8.8519 6.63929 8.84619C5.86093 8.41428 5.19337 7.91995 4.63651 7.36332C4.07982 6.80636 3.58543 6.13887 3.15363 5.36041C3.14796 5.34904 3.11521 5.29504 3.0556 5.1985C2.9959 5.10188 2.95611 5.03379 2.93623 4.99391C2.91635 4.95417 2.8922 4.89591 2.86384 4.81922C2.83548 4.74253 2.82124 4.67865 2.82124 4.62746C2.82124 4.52525 2.90223 4.3945 3.06417 4.23539C3.22608 4.07638 3.40226 3.92575 3.59253 3.78381C3.78295 3.64187 3.95895 3.48557 4.12092 3.31518C4.28283 3.1447 4.36379 3.00273 4.36379 2.88912C4.36379 2.80963 4.34391 2.72858 4.30418 2.64622C4.26441 2.56368 4.20334 2.46297 4.12092 2.34359C4.03847 2.22428 3.98877 2.15332 3.9717 2.13049C3.88656 1.98855 3.79859 1.83658 3.70758 1.67464C3.61656 1.51272 3.51722 1.33225 3.40922 1.13341C3.30131 0.934661 3.21614 0.781198 3.15357 0.673257C2.95483 0.275613 2.80429 0.0596122 2.70199 0.0256419C2.6622 0.00859706 2.6025 0 2.52303 0C2.36954 0 2.1693 0.0283583 1.92216 0.0852542C1.67494 0.14206 1.4804 0.201643 1.33834 0.26424C1.05425 0.383494 0.753144 0.730063 0.434934 1.30383C0.145171 1.8378 0.000305176 2.36631 0.000305176 2.88897C0.000305176 3.04225 0.0102455 3.19139 0.0301262 3.3364C0.0500069 3.48127 0.0855294 3.64465 0.136724 3.8265C0.187828 4.00829 0.229052 4.14333 0.260217 4.23127C0.291411 4.31928 0.34965 4.47692 0.434904 4.70426C0.520039 4.93155 0.571233 5.07068 0.588278 5.12182C0.787115 5.67866 1.02291 6.17576 1.29559 6.61329C1.74425 7.34051 2.35652 8.09207 3.13205 8.86766C3.90761 9.64318 4.65901 10.2554 5.3863 10.7043C5.82376 10.9769 6.32105 11.2127 6.8778 11.4117C6.92896 11.4286 7.0681 11.4797 7.29529 11.5651C7.52258 11.6503 7.68028 11.7086 7.76828 11.7398C7.85631 11.7711 7.99139 11.8124 8.17303 11.8636C8.35506 11.9147 8.51828 11.9503 8.66315 11.9703C8.80811 11.9899 8.95727 12 9.11059 12C9.63321 12 10.1618 11.8551 10.6958 11.5653C11.2695 11.2473 11.616 10.9461 11.7353 10.6618C11.7981 10.5199 11.8575 10.3253 11.9143 10.0781C11.9713 9.83095 11.9996 9.63074 11.9996 9.47727C11.9998 9.39748 11.9912 9.33793 11.9741 9.29781Z" fill="#292929"/>
        </g>
        <defs>
        <clipPath id="clip0">
        <rect width="12" height="12" fill="white"/>
        </clipPath>
        </defs>
    </symbol>
    <symbol id="surf">
        <path d="M37.5485 3.45152C37.3352 3.23814 37.0379 3.13037 36.7376 3.15814C36.6123 3.16952 33.6209 3.45402 29.5183 4.83108C16.1663 8.94322 7.32974 21.8899 3.22065 31.2558C2.962 31.8743 3.48458 32.7021 4.26676 32.6337L8.80535 32.1922L8.36386 36.7304C8.31549 37.3828 8.94883 38.0699 9.74184 37.7764C26.0466 30.3472 35.9919 18.976 37.8419 4.26228C37.8694 3.96186 37.7619 3.66476 37.5485 3.45152ZM24.4105 25.7881C22.6089 27.4277 20.8329 28.8372 19.1913 30.0245V12.7211C20.9122 11.3108 22.6957 10.1677 24.4105 9.24486V25.7881ZM14.4936 33.0991C12.8802 34.0471 11.5183 34.7389 10.5551 35.1956L10.9478 31.1597C11.006 30.6346 10.5202 29.9703 9.83797 30.05L5.8034 30.4424C7.16641 27.5507 10.8373 20.8176 17.159 14.5514V31.4322C16.1849 32.0781 15.286 32.6336 14.4936 33.0991ZM34.2232 10.8908C33.0298 14.4275 30.7123 19.5335 26.4428 23.8442V8.2325C29.2239 6.88932 33.4729 5.68533 35.6337 5.36608C35.4266 6.57955 35.0109 8.55616 34.2232 10.8908Z" fill="white"/>
    </symbol>
</svg>